<?xml version="1.0" encoding="UTF-8" standalone="no"?>
<svg
   xmlns:dc="http://purl.org/dc/elements/1.1/"
   xmlns:cc="http://creativecommons.org/ns#"
   xmlns:rdf="http://www.w3.org/1999/02/22-rdf-syntax-ns#"
   xmlns:svg="http://www.w3.org/2000/svg"
   xmlns="http://www.w3.org/2000/svg"
   xmlns:sodipodi="http://sodipodi.sourceforge.net/DTD/sodipodi-0.dtd"
   xmlns:inkscape="http://www.inkscape.org/namespaces/inkscape"
   inkscape:version="1.0 (4035a4fb49, 2020-05-01)"
   sodipodi:docname="atom.svg"
   id="svg1544"
   version="1.1"
   viewBox="0 0 16.933 16.933"
   height="64"
   width="64">
  <metadata
     id="metadata1550">
    <rdf:RDF>
      <cc:Work
         rdf:about="">
        <dc:format>image/svg+xml</dc:format>
        <dc:type
           rdf:resource="http://purl.org/dc/dcmitype/StillImage" />
      </cc:Work>
    </rdf:RDF>
  </metadata>
  <defs
     id="defs1548" />
  <sodipodi:namedview
     inkscape:current-layer="svg1544"
     inkscape:window-maximized="0"
     inkscape:window-y="550"
     inkscape:window-x="1056"
     inkscape:cy="32"
     inkscape:cx="18.078665"
     inkscape:zoom="13.109375"
     showgrid="false"
     id="namedview1546"
     inkscape:window-height="530"
     inkscape:window-width="864"
     inkscape:pageshadow="2"
     inkscape:pageopacity="0"
     guidetolerance="10"
     gridtolerance="10"
     objecttolerance="10"
     borderopacity="1"
     bordercolor="#666666"
     pagecolor="#ffffff" />
  <path
     style="fill:#000000;fill-opacity:0.06634016;stroke:#ff0054;stroke-opacity:1"
     id="path1542"
     stroke-linejoin="round"
     stroke-linecap="round"
     stroke-width="1.323"
     stroke="#ca00b3"
     fill="none"
     d="M14.299 10.604c.984-.395 1.66-1.008 1.798-1.629a1.816 1.816 0 0 0-.002-.646c-.074-.321-.337-.731-.638-1.007-1.343-1.223-4.192-2.01-7.573-2.093l-.241-.006.282-.321c.197-.23.4-.453.609-.67.96-.992 1.854-1.641 2.633-1.911.249-.089.3-.1.557-.1.24 0 .298.007.401.062a.96.96 0 0 1 .38.39c.158.32.212.88.135 1.477M7.25 1.902a3.87 3.87 0 0 0-1.008-.504 2.025 2.025 0 0 0-.508-.076l-.003-.003c-.175-.005-.34.01-.449.048-.535.187-.871.588-1.058 1.258-.16.584-.156 1.634.012 2.548.03.159.06.303.066.327.01.033-.048.053-.3.111-1.239.287-2.142.715-2.685 1.27-.244.248-.38.464-.458.737a1.725 1.725 0 0 0 0 .75c.152.515.58.997 1.255 1.424m2.74-1.385c-.8 1.568-1.313 3.166-1.375 4.335-.05.901.11 1.545.502 1.945.427.434 1.03.527 1.804.275m.181-5.028c.387.882.488 1.03 1.065 1.9 1.378 2.077 2.887 3.427 4.048 3.62l-.012.003c.51.084.942-.044 1.275-.383.271-.28.45-.674.552-1.222.062-.343.062-1.304 0-1.77-.188-1.399-.691-3-1.443-4.596m-2.685.324a.884.884 0 0 0-.883.885.884.884 0 1 0 .883-.885z" />
</svg>
